<svg width="512" height="512" viewBox="0 0 512 512" fill="none" xmlns="http://www.w3.org/2000/svg">
  <rect width="512" height="512" rx="96" fill="#0f172a"/>
  <defs>
    <linearGradient id="gradient" x1="0%" y1="0%" x2="100%" y2="100%">
      <stop offset="0%" style="stop-color:#818cf8;stop-opacity:1" />
      <stop offset="100%" style="stop-color:#22c55e;stop-opacity:1" />
    </linearGradient>
  </defs>
  <!-- Coffee Cup -->
  <path d="M160 160 L160 320 C160 368 208 400 256 400 C304 400 352 368 352 320 L352 160 Z" 
        fill="none" stroke="url(#gradient)" stroke-width="24" stroke-linecap="round" stroke-linejoin="round"/>
  <!-- Cup Handle -->
  <path d="M352 200 C400 200 432 230 432 270 C432 310 400 340 352 340"
        fill="none" stroke="url(#gradient)" stroke-width="24" stroke-linecap="round"/>
  <!-- Steam Lines -->
  <path d="M200 120 C200 100 220 90 220 70" 
        fill="none" stroke="url(#gradient)" stroke-width="16" stroke-linecap="round" opacity="0.7"/>
  <path d="M256 130 C256 110 276 100 276 80"
        fill="none" stroke="url(#gradient)" stroke-width="16" stroke-linecap="round" opacity="0.7"/>
  <path d="M312 120 C312 100 332 90 332 70"
        fill="none" stroke="url(#gradient)" stroke-width="16" stroke-linecap="round" opacity="0.7"/>
</svg>
